<svg xmlns="http://www.w3.org/2000/svg" xmlns:xlink="http://www.w3.org/1999/xlink" contentStyleType="text/css" height="435px" preserveAspectRatio="none" style="width:835px;height:435px;background:#FFFFFF;" version="1.1" viewBox="0 0 835 435" width="835px" zoomAndPan="magnify"><defs/><g><!--class {abstract} \n Command--><g id="elem_{abstract} \n Command"><rect codeLine="4" fill="#F1F1F1" height="81.8633" id="{abstract} \n Command" rx="2.5" ry="2.5" style="stroke:#181818;stroke-width:0.5;" width="78.5342" x="401.5" y="7"/><text fill="#000000" font-family="sans-serif" font-size="14" font-style="italic" lengthAdjust="spacing" textLength="59.1514" x="409.2466" y="27.1074">{abstract}</text><text fill="#000000" font-family="sans-serif" font-size="14" font-style="italic" lengthAdjust="spacing" textLength="64.5791" x="410.4224" y="45.7285">Command</text><line style="stroke:#181818;stroke-width:0.5;" x1="402.5" x2="479.0342" y1="54.2422" y2="54.2422"/><line style="stroke:#181818;stroke-width:0.5;" x1="402.5" x2="479.0342" y1="62.2422" y2="62.2422"/><text fill="#000000" font-family="sans-serif" font-size="14" font-style="italic" lengthAdjust="spacing" textLength="66.5342" x="407.5" y="81.3496">+execute()</text></g><!--class ChangeCommand--><g id="elem_ChangeCommand"><rect codeLine="8" fill="#F1F1F1" height="63.2422" id="ChangeCommand" rx="2.5" ry="2.5" style="stroke:#181818;stroke-width:0.5;" width="119.6201" x="29" y="149"/><text fill="#000000" font-family="sans-serif" font-size="14" lengthAdjust="spacing" textLength="113.6201" x="32" y="169.1074">ChangeCommand</text><line style="stroke:#181818;stroke-width:0.5;" x1="30" x2="147.6201" y1="177.6211" y2="177.6211"/><line style="stroke:#181818;stroke-width:0.5;" x1="30" x2="147.6201" y1="185.6211" y2="185.6211"/><text fill="#000000" font-family="sans-serif" font-size="14" lengthAdjust="spacing" textLength="66.5342" x="35" y="204.7285">+execute()</text></g><!--class CheckCommand--><g id="elem_CheckCommand"><rect codeLine="12" fill="#F1F1F1" height="63.2422" id="CheckCommand" rx="2.5" ry="2.5" style="stroke:#181818;stroke-width:0.5;" width="110.2617" x="455" y="149"/><text fill="#000000" font-family="sans-serif" font-size="14" lengthAdjust="spacing" textLength="104.2617" x="458" y="169.1074">CheckCommand</text><line style="stroke:#181818;stroke-width:0.5;" x1="456" x2="564.2617" y1="177.6211" y2="177.6211"/><line style="stroke:#181818;stroke-width:0.5;" x1="456" x2="564.2617" y1="185.6211" y2="185.6211"/><text fill="#000000" font-family="sans-serif" font-size="14" lengthAdjust="spacing" textLength="66.5342" x="461" y="204.7285">+execute()</text></g><!--class ExitCommand--><g id="elem_ExitCommand"><rect codeLine="16" fill="#F1F1F1" height="63.2422" id="ExitCommand" rx="2.5" ry="2.5" style="stroke:#181818;stroke-width:0.5;" width="93.917" x="600" y="149"/><text fill="#000000" font-family="sans-serif" font-size="14" lengthAdjust="spacing" textLength="87.917" x="603" y="169.1074">ExitCommand</text><line style="stroke:#181818;stroke-width:0.5;" x1="601" x2="692.917" y1="177.6211" y2="177.6211"/><line style="stroke:#181818;stroke-width:0.5;" x1="601" x2="692.917" y1="185.6211" y2="185.6211"/><text fill="#000000" font-family="sans-serif" font-size="14" lengthAdjust="spacing" textLength="66.5342" x="606" y="204.7285">+execute()</text></g><!--class FlipCommand--><g id="elem_FlipCommand"><rect codeLine="20" fill="#F1F1F1" height="63.2422" id="FlipCommand" rx="2.5" ry="2.5" style="stroke:#181818;stroke-width:0.5;" width="93.1377" x="326.5" y="149"/><text fill="#000000" font-family="sans-serif" font-size="14" lengthAdjust="spacing" textLength="87.1377" x="329.5" y="169.1074">FlipCommand</text><line style="stroke:#181818;stroke-width:0.5;" x1="327.5" x2="418.6377" y1="177.6211" y2="177.6211"/><line style="stroke:#181818;stroke-width:0.5;" x1="327.5" x2="418.6377" y1="185.6211" y2="185.6211"/><text fill="#000000" font-family="sans-serif" font-size="14" lengthAdjust="spacing" textLength="66.5342" x="332.5" y="204.7285">+execute()</text></g><!--class HelpCommand--><g id="elem_HelpCommand"><rect codeLine="24" fill="#F1F1F1" height="63.2422" id="HelpCommand" rx="2.5" ry="2.5" style="stroke:#181818;stroke-width:0.5;" width="99.3721" x="729.5" y="149"/><text fill="#000000" font-family="sans-serif" font-size="14" lengthAdjust="spacing" textLength="93.3721" x="732.5" y="169.1074">HelpCommand</text><line style="stroke:#181818;stroke-width:0.5;" x1="730.5" x2="827.8721" y1="177.6211" y2="177.6211"/><line style="stroke:#181818;stroke-width:0.5;" x1="730.5" x2="827.8721" y1="185.6211" y2="185.6211"/><text fill="#000000" font-family="sans-serif" font-size="14" lengthAdjust="spacing" textLength="66.5342" x="735.5" y="204.7285">+execute()</text></g><!--class ResetCommand--><g id="elem_ResetCommand"><rect codeLine="28" fill="#F1F1F1" height="63.2422" id="ResetCommand" rx="2.5" ry="2.5" style="stroke:#181818;stroke-width:0.5;" width="107.1514" x="184.5" y="149"/><text fill="#000000" font-family="sans-serif" font-size="14" lengthAdjust="spacing" textLength="101.1514" x="187.5" y="169.1074">ResetCommand</text><line style="stroke:#181818;stroke-width:0.5;" x1="185.5" x2="290.6514" y1="177.6211" y2="177.6211"/><line style="stroke:#181818;stroke-width:0.5;" x1="185.5" x2="290.6514" y1="185.6211" y2="185.6211"/><text fill="#000000" font-family="sans-serif" font-size="14" lengthAdjust="spacing" textLength="66.5342" x="190.5" y="204.7285">+execute()</text></g><!--class Storage--><g id="elem_Storage"><rect codeLine="32" fill="#F1F1F1" height="63.2422" id="Storage" rx="2.5" ry="2.5" style="stroke:#181818;stroke-width:0.5;" width="147.7754" x="7" y="318.5"/><text fill="#000000" font-family="sans-serif" font-size="14" lengthAdjust="spacing" textLength="49.0342" x="56.3706" y="338.6074">Storage</text><line style="stroke:#181818;stroke-width:0.5;" x1="8" x2="153.7754" y1="347.1211" y2="347.1211"/><line style="stroke:#181818;stroke-width:0.5;" x1="8" x2="153.7754" y1="355.1211" y2="355.1211"/><text fill="#000000" font-family="sans-serif" font-size="14" lengthAdjust="spacing" textLength="135.7754" x="13" y="374.2285">+saveData(UserData)</text></g><!--class UserData--><g id="elem_UserData"><rect codeLine="36" fill="#F1F1F1" height="156.3477" id="UserData" rx="2.5" ry="2.5" style="stroke:#181818;stroke-width:0.5;" width="114.3408" x="190" y="272"/><text fill="#000000" font-family="sans-serif" font-size="14" lengthAdjust="spacing" textLength="59.1309" x="217.605" y="292.1074">UserData</text><line style="stroke:#181818;stroke-width:0.5;" x1="191" x2="303.3408" y1="300.6211" y2="300.6211"/><text fill="#000000" font-family="sans-serif" font-size="14" lengthAdjust="spacing" textLength="83.6719" x="196" y="319.7285">+balance : int</text><text fill="#000000" font-family="sans-serif" font-size="14" lengthAdjust="spacing" textLength="102.3408" x="196" y="338.3496">+betAmount : int</text><text fill="#000000" font-family="sans-serif" font-size="14" lengthAdjust="spacing" textLength="92.9961" x="196" y="356.9707">+winCount : int</text><text fill="#000000" font-family="sans-serif" font-size="14" lengthAdjust="spacing" textLength="97.6719" x="196" y="375.5918">+loseCount : int</text><text fill="#000000" font-family="sans-serif" font-size="14" lengthAdjust="spacing" textLength="89.8789" x="196" y="394.2129">+totalWon : int</text><text fill="#000000" font-family="sans-serif" font-size="14" lengthAdjust="spacing" textLength="87.5547" x="196" y="412.834">+totalLost : int</text><line style="stroke:#181818;stroke-width:0.5;" x1="191" x2="303.3408" y1="420.3477" y2="420.3477"/></g><!--class AchievementList--><g id="elem_AchievementList"><rect codeLine="45" fill="#F1F1F1" height="81.8633" id="AchievementList" rx="2.5" ry="2.5" style="stroke:#181818;stroke-width:0.5;" width="190.6094" x="339.5" y="309"/><text fill="#000000" font-family="sans-serif" font-size="14" lengthAdjust="spacing" textLength="102.7168" x="383.4463" y="329.1074">AchievementList</text><line style="stroke:#181818;stroke-width:0.5;" x1="340.5" x2="529.1094" y1="337.6211" y2="337.6211"/><line style="stroke:#181818;stroke-width:0.5;" x1="340.5" x2="529.1094" y1="345.6211" y2="345.6211"/><text fill="#000000" font-family="sans-serif" font-size="14" lengthAdjust="spacing" textLength="178.6094" x="345.5" y="364.7285">+update(UserData, Boolean)</text><text fill="#000000" font-family="sans-serif" font-size="14" lengthAdjust="spacing" textLength="150.5615" x="345.5" y="383.3496">+getPrintString() : String</text></g><!--class Printer--><g id="elem_Printer"><rect fill="#F1F1F1" height="44.6211" id="Printer" rx="2.5" ry="2.5" style="stroke:#181818;stroke-width:0.5;" width="47.2344" x="565.5" y="327.5"/><text fill="#000000" font-family="sans-serif" font-size="14" lengthAdjust="spacing" textLength="41.2344" x="568.5" y="347.6074">Printer</text><line style="stroke:#181818;stroke-width:0.5;" x1="566.5" x2="611.7344" y1="356.1211" y2="356.1211"/><line style="stroke:#181818;stroke-width:0.5;" x1="566.5" x2="611.7344" y1="364.1211" y2="364.1211"/></g><!--reverse link {abstract} \n Command to ChangeCommand--><g id="link_{abstract} \n Command_ChangeCommand"><path codeLine="50" d="M384.4736,69.1979 C331.1036,88.3079 250.13,117.58 167,149 C161.29,151.16 155.35,153.43 149.41,155.72 " fill="none" id="{abstract} \n Command-backto-ChangeCommand" style="stroke:#181818;stroke-width:1.0;"/><polygon fill="none" points="401.42,63.13,382.451,63.5491,386.4963,74.8467,401.42,63.13" style="stroke:#181818;stroke-width:1.0;"/></g><!--reverse link {abstract} \n Command to CheckCommand--><g id="link_{abstract} \n Command_CheckCommand"><path codeLine="51" d="M470.6798,105.1346 C480.8098,124.3046 484.34,130.96 493.74,148.74 " fill="none" id="{abstract} \n Command-backto-CheckCommand" style="stroke:#181818;stroke-width:1.0;"/><polygon fill="none" points="462.27,89.22,465.3749,107.9379,475.9847,102.3314,462.27,89.22" style="stroke:#181818;stroke-width:1.0;"/></g><!--reverse link {abstract} \n Command to ExitCommand--><g id="link_{abstract} \n Command_ExitCommand"><path codeLine="52" d="M495.9259,83.7922 C529.9459,105.3422 563.8,126.8 599.82,149.61 " fill="none" id="{abstract} \n Command-backto-ExitCommand" style="stroke:#181818;stroke-width:1.0;"/><polygon fill="none" points="480.72,74.16,492.7152,88.8609,499.1367,78.7236,480.72,74.16" style="stroke:#181818;stroke-width:1.0;"/></g><!--reverse link {abstract} \n Command to FlipCommand--><g id="link_{abstract} \n Command_FlipCommand"><path codeLine="53" d="M411.7215,105.1825 C401.7315,124.3525 398.29,130.96 389.03,148.74 " fill="none" id="{abstract} \n Command-backto-FlipCommand" style="stroke:#181818;stroke-width:1.0;"/><polygon fill="none" points="420.04,89.22,406.4007,102.4097,417.0423,107.9554,420.04,89.22" style="stroke:#181818;stroke-width:1.0;"/></g><!--reverse link {abstract} \n Command to HelpCommand--><g id="link_{abstract} \n Command_HelpCommand"><path codeLine="54" d="M497.8526,68.5785 C551.0026,87.0485 630.84,115.61 712,149 C717.67,151.33 723.57,153.87 729.42,156.44 " fill="none" id="{abstract} \n Command-backto-HelpCommand" style="stroke:#181818;stroke-width:1.0;"/><polygon fill="none" points="480.85,62.67,495.8831,74.2461,499.8221,62.911,480.85,62.67" style="stroke:#181818;stroke-width:1.0;"/></g><!--reverse link {abstract} \n Command to ResetCommand--><g id="link_{abstract} \n Command_ResetCommand"><path codeLine="55" d="M386.2385,84.2032 C353.1185,105.4932 320.94,126.18 285.74,148.81 " fill="none" id="{abstract} \n Command-backto-ResetCommand" style="stroke:#181818;stroke-width:1.0;"/><polygon fill="none" points="401.38,74.47,382.9941,79.156,389.4829,89.2503,401.38,74.47" style="stroke:#181818;stroke-width:1.0;"/></g><!--link ChangeCommand to UserData--><g id="link_ChangeCommand_UserData"><path codeLine="57" d="M117.98,212.22 C138.02,233.47 161.2534,258.0949 185.6034,283.9149 " fill="none" id="ChangeCommand-to-UserData" style="stroke:#181818;stroke-width:1.0;"/><polygon fill="#181818" points="189.72,288.28,186.4552,278.988,186.2895,284.6424,180.6351,284.4768,189.72,288.28" style="stroke:#181818;stroke-width:1.0;"/></g><!--link ChangeCommand to Printer--><g id="link_ChangeCommand_Printer"><path codeLine="58" d="M149.03,206.46 C155.05,208.51 161.11,210.4 167,212 C332.46,256.81 408.37,172.56 548,272 C566.63,285.27 575.6844,303.9674 581.5044,321.7574 " fill="none" id="ChangeCommand-to-Printer" style="stroke:#181818;stroke-width:1.0;stroke-dasharray:7.0,7.0;"/><polygon fill="#181818" points="583.37,327.46,584.3733,317.6624,581.8153,322.7078,576.7699,320.1499,583.37,327.46" style="stroke:#181818;stroke-width:1.0;"/></g><!--link ChangeCommand to Storage--><g id="link_ChangeCommand_Storage"><path codeLine="59" d="M87.53,212.22 C86.09,242.44 84.1862,282.3268 82.7462,312.4768 " fill="none" id="ChangeCommand-to-Storage" style="stroke:#181818;stroke-width:1.0;"/><polygon fill="#181818" points="82.46,318.47,86.8848,309.6711,82.6985,313.4757,78.8939,309.2894,82.46,318.47" style="stroke:#181818;stroke-width:1.0;"/></g><!--link CheckCommand to UserData--><g id="link_CheckCommand_UserData"><path codeLine="61" d="M454.57,205.6 C407.66,226.46 344.57,255.76 322,272 C315.94,276.36 314.4381,277.2692 308.6381,282.3892 " fill="none" id="CheckCommand-to-UserData" style="stroke:#181818;stroke-width:1.0;"/><polygon fill="#181818" points="304.14,286.36,313.5344,283.4026,307.8884,283.051,308.24,277.4051,304.14,286.36" style="stroke:#181818;stroke-width:1.0;"/></g><!--link CheckCommand to Printer--><g id="link_CheckCommand_Printer"><path codeLine="62" d="M524.49,212.22 C540.17,245.47 562.2209,292.2231 576.0709,321.5931 " fill="none" id="CheckCommand-to-Printer" style="stroke:#181818;stroke-width:1.0;stroke-dasharray:7.0,7.0;"/><polygon fill="#181818" points="578.63,327.02,578.4092,317.1736,576.4974,322.4976,571.1734,320.5858,578.63,327.02" style="stroke:#181818;stroke-width:1.0;"/></g><!--link FlipCommand to UserData--><g id="link_FlipCommand_UserData"><path codeLine="64" d="M349.89,212.22 C336.96,229.41 323.8253,246.864 307.6253,268.414 " fill="none" id="FlipCommand-to-UserData" style="stroke:#181818;stroke-width:1.0;"/><polygon fill="#181818" points="304.02,273.21,312.6253,268.4196,307.0244,269.2133,306.2307,263.6125,304.02,273.21" style="stroke:#181818;stroke-width:1.0;"/></g><!--link FlipCommand to AchievementList--><g id="link_FlipCommand_AchievementList"><path codeLine="65" d="M384.37,212.22 C394.44,239.42 407.1172,273.6731 418.1072,303.3631 " fill="none" id="FlipCommand-to-AchievementList" style="stroke:#181818;stroke-width:1.0;"/><polygon fill="#181818" points="420.19,308.99,420.817,299.1611,418.4543,304.3009,413.3145,301.9382,420.19,308.99" style="stroke:#181818;stroke-width:1.0;"/></g><!--link FlipCommand to Storage--><g id="link_FlipCommand_Storage"><path codeLine="66" d="M326.24,203.99 C320.45,206.72 314.6,209.44 309,212 C248.54,239.64 228.41,236.83 172,272 C150.75,285.25 133.7018,299.1463 116.9418,314.3663 " fill="none" id="FlipCommand-to-Storage" style="stroke:#181818;stroke-width:1.0;"/><polygon fill="#181818" points="112.5,318.4,121.8518,315.3107,116.2015,315.0386,116.4736,309.3883,112.5,318.4" style="stroke:#181818;stroke-width:1.0;"/></g><!--link FlipCommand to Printer--><g id="link_FlipCommand_Printer"><path codeLine="67" d="M419.81,203.92 C468.17,227.35 537.96,262.08 548,272 C563.73,287.54 572.6366,304.8232 579.2966,321.6032 " fill="none" id="FlipCommand-to-Printer" style="stroke:#181818;stroke-width:1.0;stroke-dasharray:7.0,7.0;"/><polygon fill="#181818" points="581.51,327.18,581.9077,317.3392,579.6655,322.5327,574.472,320.2904,581.51,327.18" style="stroke:#181818;stroke-width:1.0;"/></g><!--link HelpCommand to Printer--><g id="link_HelpCommand_Printer"><path codeLine="69" d="M744.15,212.22 C705.91,245.94 650.0613,295.1729 617.0313,324.2829 " fill="none" id="HelpCommand-to-Printer" style="stroke:#181818;stroke-width:1.0;stroke-dasharray:7.0,7.0;"/><polygon fill="#181818" points="612.53,328.25,621.9267,325.3002,616.2811,324.9441,616.6373,319.2984,612.53,328.25" style="stroke:#181818;stroke-width:1.0;"/></g><!--link ResetCommand to Storage--><g id="link_ResetCommand_Storage"><path codeLine="71" d="M209.2,212.22 C180.88,242.44 141.984,283.9431 113.714,314.0931 " fill="none" id="ResetCommand-to-Storage" style="stroke:#181818;stroke-width:1.0;"/><polygon fill="#181818" points="109.61,318.47,118.6839,314.6406,113.03,314.8226,112.848,309.1687,109.61,318.47" style="stroke:#181818;stroke-width:1.0;"/></g><!--link ResetCommand to UserData--><g id="link_ResetCommand_UserData"><path codeLine="72" d="M239.65,212.22 C240.55,229.03 241.399,244.6986 242.529,265.7886 " fill="none" id="ResetCommand-to-UserData" style="stroke:#181818;stroke-width:1.0;"/><polygon fill="#181818" points="242.85,271.78,246.3627,262.5789,242.5825,266.7872,238.3742,263.0069,242.85,271.78" style="stroke:#181818;stroke-width:1.0;"/></g><!--link ResetCommand to Printer--><g id="link_ResetCommand_Printer"><path codeLine="73" d="M291.53,205.57 C297.38,207.87 303.28,210.07 309,212 C412.76,247.06 461.73,204.53 548,272 C565.78,285.9 574.7808,304.0424 580.8508,321.5124 " fill="none" id="ResetCommand-to-Printer" style="stroke:#181818;stroke-width:1.0;stroke-dasharray:7.0,7.0;"/><polygon fill="#181818" points="582.82,327.18,583.6446,317.3657,581.179,322.457,576.0877,319.9914,582.82,327.18" style="stroke:#181818;stroke-width:1.0;"/></g><!--link ExitCommand to Printer--><g id="link_ExitCommand_Printer"><path codeLine="75" d="M636.36,212.22 C624.85,245.47 608.7433,291.9803 598.5733,321.3503 " fill="none" id="ExitCommand-to-Printer" style="stroke:#181818;stroke-width:1.0;stroke-dasharray:7.0,7.0;"/><polygon fill="#181818" points="596.61,327.02,603.3347,319.8243,598.2461,322.2952,595.7751,317.2066,596.61,327.02" style="stroke:#181818;stroke-width:1.0;"/></g><!--SRC=[ZPDFRy8m3CNl-HGH9r1NjFCq8J6sQPCuJ4FJBhkOO9M8D469OMYCxxxofymfqD9JvFVpYzi-J_K4fT9U6HHXfkqSFEHI6GYXJ-JrU47ugfmTwH-KjqB0E907HRArBeyR-MNbmEKvs4bBheKi7YOck49LkBGxOYF4pbaEfc0pFFGSMivpg6RDsDDAKpFrRFIycNf1SmNrZW6lk794paE69H5WYOz0qFu8wBS7XfQbFPkCmO1LAE-ajhIl8FLpjx34Qj_Q3Yebum9MQ-G8pAUprTBGXH8xpj5NKurBpD7IK1VoMYIB-GIAzoedl94FpXa4sn59XlJcY_vH4HMRjJk5s_wuDRmKaVlVD8qZq8J-fw2UP46e1raMwa4MXtgG9qA8EE1fsZl-tuhKxVRaxWkYFzDqoC_MZor2nOuft4tml4SjLQ7ooq_qSWfUZsxYEnC9qPfmgnFXE5oaH6Pyoxdm1m00]--></g></svg>