<svg xmlns="http://www.w3.org/2000/svg" xmlns:xlink="http://www.w3.org/1999/xlink" contentStyleType="text/css" height="435px" preserveAspectRatio="none" style="width:1334px;height:435px;background:#FFFFFF;" version="1.1" viewBox="0 0 1334 435" width="1334px" zoomAndPan="magnify"><defs/><g><!--class UserData--><g id="elem_UserData"><rect codeLine="4" fill="#F1F1F1" height="156.3477" id="UserData" rx="2.5" ry="2.5" style="stroke:#181818;stroke-width:0.5;" width="162.5957" x="323" y="272"/><text fill="#000000" font-family="sans-serif" font-size="14" lengthAdjust="spacing" textLength="59.1309" x="374.7324" y="292.1074">UserData</text><line style="stroke:#181818;stroke-width:0.5;" x1="324" x2="484.5957" y1="300.6211" y2="300.6211"/><text fill="#000000" font-family="sans-serif" font-size="14" lengthAdjust="spacing" textLength="142.7754" x="329" y="319.7285">+currentWinStreak : int</text><text fill="#000000" font-family="sans-serif" font-size="14" lengthAdjust="spacing" textLength="149.0234" x="329" y="338.3496">+currentLoseStreak : int</text><text fill="#000000" font-family="sans-serif" font-size="14" lengthAdjust="spacing" textLength="144.3477" x="329" y="356.9707">+highestWinStreak : int</text><text fill="#000000" font-family="sans-serif" font-size="14" lengthAdjust="spacing" textLength="150.5957" x="329" y="375.5918">+highestLoseStreak : int</text><text fill="#000000" font-family="sans-serif" font-size="14" lengthAdjust="spacing" textLength="92.9961" x="329" y="394.2129">+winCount : int</text><text fill="#000000" font-family="sans-serif" font-size="14" lengthAdjust="spacing" textLength="97.6719" x="329" y="412.834">+loseCount : int</text><line style="stroke:#181818;stroke-width:0.5;" x1="324" x2="484.5957" y1="420.3477" y2="420.3477"/></g><!--class {abstract} \n Achievement--><g id="elem_{abstract} \n Achievement"><rect codeLine="13" fill="#F1F1F1" height="81.8633" id="{abstract} \n Achievement" rx="2.5" ry="2.5" style="stroke:#181818;stroke-width:0.5;" width="190.6094" x="459" y="130"/><text fill="#000000" font-family="sans-serif" font-size="14" font-style="italic" lengthAdjust="spacing" textLength="59.1514" x="522.7842" y="150.1074">{abstract}</text><text fill="#000000" font-family="sans-serif" font-size="14" font-style="italic" lengthAdjust="spacing" textLength="80.9307" x="515.7842" y="168.7285">Achievement</text><line style="stroke:#181818;stroke-width:0.5;" x1="460" x2="648.6094" y1="177.2422" y2="177.2422"/><line style="stroke:#181818;stroke-width:0.5;" x1="460" x2="648.6094" y1="185.2422" y2="185.2422"/><text fill="#000000" font-family="sans-serif" font-size="14" font-style="italic" lengthAdjust="spacing" textLength="178.6094" x="465" y="204.3496">+update(UserData, Boolean)</text></g><!--class AchievementList--><g id="elem_AchievementList"><rect codeLine="17" fill="#F1F1F1" height="63.2422" id="AchievementList" rx="2.5" ry="2.5" style="stroke:#181818;stroke-width:0.5;" width="190.6094" x="7" y="7"/><text fill="#000000" font-family="sans-serif" font-size="14" lengthAdjust="spacing" textLength="102.7168" x="50.9463" y="27.1074">AchievementList</text><line style="stroke:#181818;stroke-width:0.5;" x1="8" x2="196.6094" y1="35.6211" y2="35.6211"/><line style="stroke:#181818;stroke-width:0.5;" x1="8" x2="196.6094" y1="43.6211" y2="43.6211"/><text fill="#000000" font-family="sans-serif" font-size="14" lengthAdjust="spacing" textLength="178.6094" x="13" y="62.7285">+update(UserData, Boolean)</text></g><!--class GamesAchievement--><g id="elem_GamesAchievement"><rect codeLine="21" fill="#F1F1F1" height="63.2422" id="GamesAchievement" rx="2.5" ry="2.5" style="stroke:#181818;stroke-width:0.5;" width="190.6094" x="233" y="7"/><text fill="#000000" font-family="sans-serif" font-size="14" lengthAdjust="spacing" textLength="126.0547" x="265.2773" y="27.1074">GamesAchievement</text><line style="stroke:#181818;stroke-width:0.5;" x1="234" x2="422.6094" y1="35.6211" y2="35.6211"/><line style="stroke:#181818;stroke-width:0.5;" x1="234" x2="422.6094" y1="43.6211" y2="43.6211"/><text fill="#000000" font-family="sans-serif" font-size="14" lengthAdjust="spacing" textLength="178.6094" x="239" y="62.7285">+update(UserData, Boolean)</text></g><!--class LoseStreakAchievement--><g id="elem_LoseStreakAchievement"><rect codeLine="25" fill="#F1F1F1" height="63.2422" id="LoseStreakAchievement" rx="2.5" ry="2.5" style="stroke:#181818;stroke-width:0.5;" width="190.6094" x="459" y="7"/><text fill="#000000" font-family="sans-serif" font-size="14" lengthAdjust="spacing" textLength="151.751" x="478.4292" y="27.1074">LoseStreakAchievement</text><line style="stroke:#181818;stroke-width:0.5;" x1="460" x2="648.6094" y1="35.6211" y2="35.6211"/><line style="stroke:#181818;stroke-width:0.5;" x1="460" x2="648.6094" y1="43.6211" y2="43.6211"/><text fill="#000000" font-family="sans-serif" font-size="14" lengthAdjust="spacing" textLength="178.6094" x="465" y="62.7285">+update(UserData, Boolean)</text></g><!--class WinCountAchievement--><g id="elem_WinCountAchievement"><rect codeLine="29" fill="#F1F1F1" height="63.2422" id="WinCountAchievement" rx="2.5" ry="2.5" style="stroke:#181818;stroke-width:0.5;" width="190.6094" x="685" y="7"/><text fill="#000000" font-family="sans-serif" font-size="14" lengthAdjust="spacing" textLength="142.3994" x="709.105" y="27.1074">WinCountAchievement</text><line style="stroke:#181818;stroke-width:0.5;" x1="686" x2="874.6094" y1="35.6211" y2="35.6211"/><line style="stroke:#181818;stroke-width:0.5;" x1="686" x2="874.6094" y1="43.6211" y2="43.6211"/><text fill="#000000" font-family="sans-serif" font-size="14" lengthAdjust="spacing" textLength="178.6094" x="691" y="62.7285">+update(UserData, Boolean)</text></g><!--class LoseCountAchievement--><g id="elem_LoseCountAchievement"><rect codeLine="33" fill="#F1F1F1" height="63.2422" id="LoseCountAchievement" rx="2.5" ry="2.5" style="stroke:#181818;stroke-width:0.5;" width="190.6094" x="911" y="7"/><text fill="#000000" font-family="sans-serif" font-size="14" lengthAdjust="spacing" textLength="148.6475" x="931.981" y="27.1074">LoseCountAchievement</text><line style="stroke:#181818;stroke-width:0.5;" x1="912" x2="1100.6094" y1="35.6211" y2="35.6211"/><line style="stroke:#181818;stroke-width:0.5;" x1="912" x2="1100.6094" y1="43.6211" y2="43.6211"/><text fill="#000000" font-family="sans-serif" font-size="14" lengthAdjust="spacing" textLength="178.6094" x="917" y="62.7285">+update(UserData, Boolean)</text></g><!--class WinStreakAchievement--><g id="elem_WinStreakAchievement"><rect codeLine="37" fill="#F1F1F1" height="63.2422" id="WinStreakAchievement" rx="2.5" ry="2.5" style="stroke:#181818;stroke-width:0.5;" width="190.6094" x="1137" y="7"/><text fill="#000000" font-family="sans-serif" font-size="14" lengthAdjust="spacing" textLength="145.5029" x="1159.5532" y="27.1074">WinStreakAchievement</text><line style="stroke:#181818;stroke-width:0.5;" x1="1138" x2="1326.6094" y1="35.6211" y2="35.6211"/><line style="stroke:#181818;stroke-width:0.5;" x1="1138" x2="1326.6094" y1="43.6211" y2="43.6211"/><text fill="#000000" font-family="sans-serif" font-size="14" lengthAdjust="spacing" textLength="178.6094" x="1143" y="62.7285">+update(UserData, Boolean)</text></g><!--link GamesAchievement to {abstract} \n Achievement--><g id="link_GamesAchievement_{abstract} \n Achievement"><path codeLine="42" d="M381.49,70.1 C412.41,87.95 436.1823,101.6787 469.5523,120.9487 " fill="none" id="GamesAchievement-to-{abstract} \n Achievement" style="stroke:#181818;stroke-width:1.0;"/><polygon fill="none" points="485.14,129.95,472.5528,115.7528,466.5519,126.1446,485.14,129.95" style="stroke:#181818;stroke-width:1.0;"/></g><!--link LoseStreakAchievement to {abstract} \n Achievement--><g id="link_LoseStreakAchievement_{abstract} \n Achievement"><path codeLine="43" d="M554.5,70.1 C554.5,87.88 554.5,92.49 554.5,111.71 " fill="none" id="LoseStreakAchievement-to-{abstract} \n Achievement" style="stroke:#181818;stroke-width:1.0;"/><polygon fill="none" points="554.5,129.71,560.5,111.71,548.5,111.71,554.5,129.71" style="stroke:#181818;stroke-width:1.0;"/></g><!--link WinCountAchievement to {abstract} \n Achievement--><g id="link_WinCountAchievement_{abstract} \n Achievement"><path codeLine="44" d="M727.51,70.1 C696.59,87.95 672.8177,101.6787 639.4477,120.9487 " fill="none" id="WinCountAchievement-to-{abstract} \n Achievement" style="stroke:#181818;stroke-width:1.0;"/><polygon fill="none" points="623.86,129.95,642.4481,126.1446,636.4472,115.7528,623.86,129.95" style="stroke:#181818;stroke-width:1.0;"/></g><!--link WinStreakAchievement to {abstract} \n Achievement--><g id="link_WinStreakAchievement_{abstract} \n Achievement"><path codeLine="45" d="M1136.78,65.96 C1130.95,67.38 1125.15,68.74 1119.5,70 C955.79,106.51 780.8084,135.4979 668.0184,152.9479 " fill="none" id="WinStreakAchievement-to-{abstract} \n Achievement" style="stroke:#181818;stroke-width:1.0;"/><polygon fill="none" points="650.23,155.7,668.9357,158.8774,667.101,147.0185,650.23,155.7" style="stroke:#181818;stroke-width:1.0;"/></g><!--link LoseCountAchievement to {abstract} \n Achievement--><g id="link_LoseCountAchievement_{abstract} \n Achievement"><path codeLine="46" d="M910.92,67.1 C834.23,89.24 744.3836,115.1768 667.6336,137.3368 " fill="none" id="LoseCountAchievement-to-{abstract} \n Achievement" style="stroke:#181818;stroke-width:1.0;"/><polygon fill="none" points="650.34,142.33,669.298,143.1014,665.9692,131.5723,650.34,142.33" style="stroke:#181818;stroke-width:1.0;"/></g><!--link AchievementList to {abstract} \n Achievement--><g id="link_AchievementList_{abstract} \n Achievement"><path codeLine="49" d="M198.08,67.1 C274.77,89.24 381.91,120.17 458.66,142.33 " fill="none" id="AchievementList-{abstract} \n Achievement" style="stroke:#181818;stroke-width:1.0;"/></g><!--link AchievementList to UserData--><g id="link_AchievementList_UserData"><path codeLine="50" d="M132.28,70.02 C177.67,116.54 261.3897,202.3357 325.0597,267.5857 " fill="none" id="AchievementList-to-UserData" style="stroke:#181818;stroke-width:1.0;stroke-dasharray:7.0,7.0;"/><polygon fill="#181818" points="329.25,271.88,325.8274,262.645,325.7581,268.3014,320.1016,268.2321,329.25,271.88" style="stroke:#181818;stroke-width:1.0;"/></g><!--link {abstract} \n Achievement to UserData--><g id="link_{abstract} \n Achievement_UserData"><path codeLine="51" d="M520.46,212.16 C505.51,229.81 491.2994,246.5728 473.8994,267.1028 " fill="none" id="{abstract} \n Achievement-to-UserData" style="stroke:#181818;stroke-width:1.0;stroke-dasharray:7.0,7.0;"/><polygon fill="#181818" points="470.02,271.68,478.8905,267.4005,473.2528,267.8657,472.7876,262.228,470.02,271.68" style="stroke:#181818;stroke-width:1.0;"/></g><!--SRC=[fPDDJm9138Rl_HKD9mqkyUo113Kn9jo8uUAb38tRi3j3PhgGYFntKHOSORB0SfkqVVhnTfhBbD68DmL3c8cTawSIJK4X35IzJ2hbL-FiI3uPxm5-FVWMs3-J4gu04RkcyfwjZiMEr3FDy075QkmQki17lbm-SWv9h7ObiQNO9rTPZKp59YwshG5e4jIJKUoiTiyrlbiSc5numUMcgSwsVOm2kjLyIietkm7lyD6vWidU_kJS3Xzb64hGEiavv0kL72By0lHFYNRyk1QjVVKhyFs6ByNXIB4i- -ethHJIGft4KlgS0xKebHJp90Lm-E-oh14u3E_r-lkxXQQZ-1Vu3G00]--></g></svg>